<?xml version="1.0" encoding="UTF-8" standalone="no"?>
<svg
   xmlns:dc="http://purl.org/dc/elements/1.1/"
   xmlns:cc="http://creativecommons.org/ns#"
   xmlns:rdf="http://www.w3.org/1999/02/22-rdf-syntax-ns#"
   xmlns:svg="http://www.w3.org/2000/svg"
   xmlns="http://www.w3.org/2000/svg"
   xmlns:sodipodi="http://sodipodi.sourceforge.net/DTD/sodipodi-0.dtd"
   xmlns:inkscape="http://www.inkscape.org/namespaces/inkscape"
   viewBox="0 0 512 512"
   version="1.1"
   id="svg4"
   sodipodi:docname="logo.svg"
   width="512"
   height="512"
   inkscape:export-filename="D:\Documents\Code\recipe-book\public\favicon.ico.png"
   inkscape:export-xdpi="12"
   inkscape:export-ydpi="12"
   inkscape:version="0.92.3 (2405546, 2018-03-11)">
  <metadata
     id="metadata10">
    <rdf:RDF>
      <cc:Work
         rdf:about="">
        <dc:format>image/svg+xml</dc:format>
        <dc:type
           rdf:resource="http://purl.org/dc/dcmitype/StillImage" />
        <dc:title></dc:title>
      </cc:Work>
    </rdf:RDF>
  </metadata>
  <defs
     id="defs8" />
  <sodipodi:namedview
     pagecolor="#ffffff"
     bordercolor="#666666"
     borderopacity="1"
     objecttolerance="10"
     gridtolerance="10"
     guidetolerance="10"
     inkscape:pageopacity="0"
     inkscape:pageshadow="2"
     inkscape:window-width="1920"
     inkscape:window-height="1017"
     id="namedview6"
     showgrid="false"
     inkscape:zoom="0.4609375"
     inkscape:cx="224"
     inkscape:cy="256"
     inkscape:window-x="-8"
     inkscape:window-y="-8"
     inkscape:window-maximized="1"
     inkscape:current-layer="svg4" />
  <path
     d="M 480,360 V 24 C 480,10.7 469.3,0 456,0 H 128 C 75,0 32,43 32,96 v 320 c 0,53 43,96 96,96 h 328 c 13.3,0 24,-10.7 24,-24 v -16 c 0,-7.5 -3.5,-14.3 -8.9,-18.7 -4.2,-15.4 -4.2,-59.3 0,-74.7 5.4,-4.3 8.9,-11.1 8.9,-18.6 z M 160,134 c 0,-3.3 2.7,-6 6,-6 h 212 c 3.3,0 6,2.7 6,6 v 20 c 0,3.3 -2.7,6 -6,6 H 166 c -3.3,0 -6,-2.7 -6,-6 z m 0,64 c 0,-3.3 2.7,-6 6,-6 h 212 c 3.3,0 6,2.7 6,6 v 20 c 0,3.3 -2.7,6 -6,6 H 166 c -3.3,0 -6,-2.7 -6,-6 z M 413.4,448 H 128 c -17.7,0 -32,-14.3 -32,-32 0,-17.6 14.4,-32 32,-32 h 285.4 c -1.9,17.1 -1.9,46.9 0,64 z"
     id="path2"
     style="fill:#8f5321;fill-opacity:1"
     inkscape:connector-curvature="0" />
</svg>
